<mxfile host="65bd71144e">
    <diagram id="qJRRZfczH_O7MpMnoV8t" name="Page-1">
        <mxGraphModel dx="826" dy="490" grid="1" gridSize="10" guides="1" tooltips="1" connect="1" arrows="1" fold="1" page="1" pageScale="1" pageWidth="850" pageHeight="1100" math="0" shadow="0">
            <root>
                <mxCell id="0"/>
                <mxCell id="1" parent="0"/>
                <mxCell id="2" value="" style="rounded=0;whiteSpace=wrap;html=1;fillColor=#FFFFFF;" vertex="1" parent="1">
                    <mxGeometry x="80" y="80" width="500" height="350" as="geometry"/>
                </mxCell>
                <mxCell id="3" value="" style="endArrow=none;html=1;exitX=-0.004;exitY=0.087;exitDx=0;exitDy=0;exitPerimeter=0;entryX=1.008;entryY=0.087;entryDx=0;entryDy=0;entryPerimeter=0;strokeColor=#000000;" edge="1" parent="1" source="2" target="2">
                    <mxGeometry width="50" height="50" relative="1" as="geometry">
                        <mxPoint x="400" y="280" as="sourcePoint"/>
                        <mxPoint x="450" y="230" as="targetPoint"/>
                    </mxGeometry>
                </mxCell>
                <mxCell id="5" value="" style="rounded=0;whiteSpace=wrap;html=1;fillColor=#FFFFFF;strokeColor=#808080;" vertex="1" parent="1">
                    <mxGeometry x="240" y="180" width="320" height="160" as="geometry"/>
                </mxCell>
                <mxCell id="6" value="&lt;font color=&quot;#000000&quot;&gt;RESET&lt;/font&gt;" style="rounded=1;whiteSpace=wrap;html=1;strokeColor=#B3B3B3;fillColor=#FFFFFF;" vertex="1" parent="1">
                    <mxGeometry x="130" y="130" width="100" height="30" as="geometry"/>
                </mxCell>
                <mxCell id="7" value="อ่านข้อมูลบัตร" style="rounded=1;whiteSpace=wrap;html=1;strokeColor=#B3B3B3;fillColor=#FFFFFF;fontColor=#3333FF;fontSize=14;" vertex="1" parent="1">
                    <mxGeometry x="240" y="130" width="100" height="30" as="geometry"/>
                </mxCell>
                <mxCell id="8" value="&lt;font style=&quot;font-size: 14px;&quot; color=&quot;#cc0000&quot;&gt;ปิดโปรแกรม&lt;/font&gt;" style="rounded=1;whiteSpace=wrap;html=1;strokeColor=#B3B3B3;fillColor=#FFFFFF;" vertex="1" parent="1">
                    <mxGeometry x="460" y="130" width="100" height="30" as="geometry"/>
                </mxCell>
                <mxCell id="9" value="" style="endArrow=none;html=1;exitX=-0.004;exitY=0.087;exitDx=0;exitDy=0;exitPerimeter=0;entryX=1.008;entryY=0.087;entryDx=0;entryDy=0;entryPerimeter=0;strokeColor=#CCCCCC;" edge="1" parent="1">
                    <mxGeometry width="50" height="50" relative="1" as="geometry">
                        <mxPoint x="80" y="349.99999999999994" as="sourcePoint"/>
                        <mxPoint x="586" y="349.99999999999994" as="targetPoint"/>
                    </mxGeometry>
                </mxCell>
                <mxCell id="10" value="" style="endArrow=none;html=1;exitX=-0.004;exitY=0.087;exitDx=0;exitDy=0;exitPerimeter=0;entryX=1.008;entryY=0.087;entryDx=0;entryDy=0;entryPerimeter=0;strokeColor=#CCCCCC;" edge="1" parent="1">
                    <mxGeometry width="50" height="50" relative="1" as="geometry">
                        <mxPoint x="80" y="399.99999999999994" as="sourcePoint"/>
                        <mxPoint x="586" y="399.99999999999994" as="targetPoint"/>
                    </mxGeometry>
                </mxCell>
                <mxCell id="11" value="ABOUT" style="rounded=1;whiteSpace=wrap;html=1;strokeColor=#999999;fillColor=#FFFFFF;fontColor=#000000;" vertex="1" parent="1">
                    <mxGeometry x="110" y="310" width="100" height="30" as="geometry"/>
                </mxCell>
                <mxCell id="12" value="&lt;font style=&quot;font-size: 14px;&quot; color=&quot;#000000&quot;&gt;บันทึก TEXT&lt;/font&gt;" style="rounded=1;whiteSpace=wrap;html=1;strokeColor=#B3B3B3;fillColor=#FFFFFF;" vertex="1" parent="1">
                    <mxGeometry x="240" y="360" width="100" height="30" as="geometry"/>
                </mxCell>
                <mxCell id="13" value="&lt;font color=&quot;#cc0000&quot; style=&quot;font-size: 14px;&quot;&gt;บันทึก IMAGE&lt;/font&gt;" style="rounded=1;whiteSpace=wrap;html=1;strokeColor=#B3B3B3;fillColor=#FFFFFF;" vertex="1" parent="1">
                    <mxGeometry x="350" y="360" width="100" height="30" as="geometry"/>
                </mxCell>
                <mxCell id="14" value="" style="rounded=0;whiteSpace=wrap;html=1;strokeColor=#999999;fillColor=#FFFFFF;" vertex="1" parent="1">
                    <mxGeometry x="115" y="180" width="90" height="100" as="geometry"/>
                </mxCell>
                <mxCell id="15" value="PYQT6 :: โปรแกรมอ่านบัตรประชาชน" style="text;html=1;strokeColor=none;fillColor=none;align=left;verticalAlign=middle;whiteSpace=wrap;rounded=0;fontSize=14;fontColor=#000000;" vertex="1" parent="1">
                    <mxGeometry x="120" y="80" width="250" height="30" as="geometry"/>
                </mxCell>
                <mxCell id="16" value="สถานะ ::" style="text;html=1;strokeColor=none;fillColor=none;align=left;verticalAlign=middle;whiteSpace=wrap;rounded=0;fontSize=14;fontColor=#000000;" vertex="1" parent="1">
                    <mxGeometry x="90" y="400" width="250" height="30" as="geometry"/>
                </mxCell>
            </root>
        </mxGraphModel>
    </diagram>
</mxfile>